<?xml version="1.0" encoding="UTF-8"?>
<svg viewBox="0 0 652 283" version="1.1" xmlns="http://www.w3.org/2000/svg" xmlns:xlink="http://www.w3.org/1999/xlink">
    <defs>
        <radialGradient cx="34.6668799%" cy="32.5115849%" fx="34.6668799%" fy="32.5115849%" r="69.165494%" id="radialGradient-1">
            <stop stop-color="#F79433" offset="0%"></stop>
            <stop stop-color="#FF3B00" offset="100%"></stop>
        </radialGradient>
    </defs>
    <g id="Page-1" stroke="none" stroke-width="1" fill="none" fill-rule="evenodd">
        <g id="logo" transform="translate(47, 0)">
            <circle id="Oval" fill="url(#radialGradient-1)" fill-rule="nonzero" cx="416.2" cy="141.6" r="140.7"></circle>
            <g id="Group" transform="translate(0, 80)" fill="#111312" fill-rule="nonzero">
                <path d="M0.1,63.7 L0.1,63.4 C0.1,42.9 15.7,26.1 37.7,26.1 C48.5,26.1 56.2,29 62.2,34.1 C63.5,35.2 65.4,37.6 65.4,41.1 C65.4,46.2 61.3,50.2 56.2,50.2 C53.5,50.2 51.5,49.1 50.3,48.2 C46.7,45.4 42.9,43.7 37.6,43.7 C27.4,43.7 20.2,52.7 20.2,63.2 L20.2,63.5 C20.2,74.5 27.3,83.3 38.4,83.3 C43.7,83.3 47.9,81.4 51.8,78.4 C52.9,77.6 54.9,76.5 57.3,76.5 C62.1,76.5 65.9,80.4 65.9,85.2 C65.9,87.9 64.7,90 63,91.6 C57,97.1 49.4,100.8 37.6,100.8 C15.8,100.8 0.1,84.2 0.1,63.7 Z" id="Path"></path>
                <path d="M79.9,36.9 C79.9,31.3 84.4,26.7 90.1,26.7 C95.7,26.7 100.3,31.2 100.3,36.9 L100.3,40.1 C103.2,33.1 108.1,26.7 114.1,26.7 C120.4,26.7 124,30.8 124,36.6 C124,41.9 120.5,45.2 116.4,46.1 C106.1,48.5 100.4,56.4 100.4,70.8 L100.4,89.8 C100.4,95.4 95.9,100 90.2,100 C84.6,100 80,95.5 80,89.8 L80,36.9 L79.9,36.9 Z" id="Path"></path>
                <path d="M135.5,10.4 C135.5,4.5 140.4,0.9 146.9,0.9 C153.4,0.9 158.3,4.5 158.3,10.4 L158.3,10.7 C158.3,16.6 153.4,20.3 146.9,20.3 C140.4,20.3 135.5,16.6 135.5,10.7 L135.5,10.4 Z M136.7,36.9 C136.7,31.3 141.2,26.7 146.9,26.7 C152.6,26.7 157.1,31.2 157.1,36.9 L157.1,89.8 C157.1,95.4 152.6,100 146.9,100 C141.2,100 136.7,95.5 136.7,89.8 L136.7,36.9 Z" id="Shape"></path>
                <path d="M172.7,63.7 L172.7,63.4 C172.7,42.9 188.3,26.1 210.3,26.1 C221.1,26.1 228.8,29 234.8,34.1 C236.1,35.2 238,37.6 238,41.1 C238,46.2 233.9,50.2 228.8,50.2 C226.1,50.2 224.1,49.1 222.9,48.2 C219.3,45.4 215.5,43.7 210.2,43.7 C200,43.7 192.8,52.7 192.8,63.2 L192.8,63.5 C192.8,74.5 199.9,83.3 211,83.3 C216.3,83.3 220.5,81.4 224.4,78.4 C225.5,77.6 227.5,76.5 229.9,76.5 C234.7,76.5 238.5,80.4 238.5,85.2 C238.5,87.9 237.3,90 235.6,91.6 C229.6,97.1 222,100.8 210.2,100.8 C188.5,100.8 172.7,84.2 172.7,63.7 L172.7,63.7 Z" id="Path"></path>
            </g>
            <path d="M425.3,137.5 C425.3,151.6 436.8,163.1 450.9,163.1 C465,163.1 476.5,151.6 476.5,137.5 C476.5,123.4 465,111.9 450.9,111.9 C436.8,111.9 425.3,123.3 425.3,137.5 L425.3,137.5 Z M484.7,163.4 L495.4,174.1 C498.7,177.4 498.7,182.8 495.4,186.2 C493.7,187.9 491.6,188.7 489.4,188.7 C487.2,188.7 485,187.9 483.4,186.2 L471.9,174.7 C465.7,178.2 458.6,180.2 451.1,180.2 C427.6,180.2 408.4,161.1 408.4,137.5 C408.4,113.9 427.5,94.8 451.1,94.8 C474.6,94.8 493.8,113.9 493.8,137.5 C493.6,147.2 490.2,156.2 484.7,163.4 Z M389.1,94.8 C393.8,94.8 397.6,98.6 397.6,103.3 L397.6,171.6 C397.6,176.3 393.8,180.1 389.1,180.1 C384.4,180.1 380.6,176.3 380.6,171.6 L380.6,146 L350.7,146 L350.7,171.6 C350.7,176.3 346.9,180.1 342.2,180.1 C337.5,180.1 333.7,176.3 333.7,171.6 L333.7,103.3 C333.7,98.6 337.5,94.8 342.2,94.8 C346.9,94.8 350.7,98.6 350.7,103.3 L350.7,128.9 L380.6,128.9 L380.6,103.3 C380.5,98.6 384.3,94.8 389.1,94.8 L389.1,94.8 Z" id="Shape" fill="#FFFFFF"></path>
        </g>
    </g>
</svg>
